<?xml version="1.0" encoding="utf-8"?>
<!-- Generator: Adobe Illustrator 23.0.2, SVG Export Plug-In . SVG Version: 6.00 Build 0)  -->
<svg version="1.1" id="レイヤー_1" xmlns="http://www.w3.org/2000/svg" xmlns:xlink="http://www.w3.org/1999/xlink" x="0px"
	 y="0px" viewBox="0 0 504.57 360" style="enable-background:new 0 0 504.57 360;" xml:space="preserve">
<style type="text/css">
	.st0{fill:#FD0000;}
	.st1{stroke:#FFFFFF;stroke-width:1.3903;stroke-miterlimit:10;}
	.st2{fill:none;stroke:#FFFF40;stroke-width:3;stroke-miterlimit:10;}
	.st3{fill:none;stroke:#FFFF49;stroke-width:3;stroke-miterlimit:10;}
	.st4{fill:none;stroke:#FF38D5;stroke-width:3;stroke-miterlimit:10;}
	.st5{fill:none;stroke:#CB66FF;stroke-width:3;stroke-miterlimit:10;}
	.st6{fill:none;stroke:#2DD5D7;stroke-width:3;stroke-miterlimit:10;}
	.st7{fill:none;stroke:#FF52FF;stroke-width:3;stroke-miterlimit:10;}
	.st8{fill:none;stroke:#FFFFFF;stroke-width:6;stroke-miterlimit:10;}
	.st9{fill:none;stroke:#FFFFFF;stroke-width:1.3903;stroke-miterlimit:10;}
</style>
<path class="st0" d="M256.05,269.55c-0.09,0.07-0.17,0.19-0.24,0.18c-0.09-0.01-0.18-0.11-0.27-0.17c0.04-0.05,0.1-0.15,0.13-0.14
	C255.8,269.44,255.92,269.5,256.05,269.55z"/>
<g>
	<path class="st1" d="M386.9,55.76c2.89,0,5.78,0,8.67,0c0.48,0.89,1.39,0.37,2.08,0.59c4.73,1.54,8.65,4.2,12.33,7.54
		c2.23,2.02,4.31,4.16,6.16,6.44c6.37,7.87,11.57,16.55,16.2,25.54c5.19,10.08,9.85,20.41,14.33,30.83
		c3.17,7.36,6.29,14.75,9.12,22.24c2.27,6.02,4.35,12.13,6.2,18.31c3,9.97,5.61,20.02,7.34,30.31c1.09,6.5,2.09,13.01,1.88,19.61
		c-0.1,2.9-0.35,5.85-1.76,8.55c-0.67,1.29-1.62,1.76-3.04,1.93c-3.71,0.44-6.7-1.43-9.68-3.03c-4.13-2.21-8.03-4.84-12.04-7.27
		c-6.29-3.81-12.66-7.45-19.3-10.65c-4.54-2.19-9.28-3.7-14.06-5.02c-6.31-1.74-12.79-2.01-19.38-1.35
		c-5.67,0.57-10.92,2.36-16.02,4.62c-6.5,2.89-12.17,7.16-17.62,11.68c-5.34,4.44-10.43,9.18-16.06,13.29
		c-5.98,4.37-12.44,7.1-19.95,7.2c-2.49,0.03-4.98-0.12-7.47-0.08c-1.54,0.02-3.1-0.17-4.61-0.47c-4.42-0.88-8.81-1.83-13.18-2.97
		c-8.76-2.28-17.37-5.08-26.11-7.43c-4.95-1.33-9.88-2.71-15.09-2.5c-2.2,0.09-3.98,1.26-4.13,2.97c-0.11,1.22,0.33,2.39,0.82,3.49
		c1.5,3.44,3.93,6.28,6.3,9.09c4.75,5.64,9.78,11.04,14.54,16.67c1.09,1.29,2.6,2.37,3.07,4.16c-2.53-1.64-4.67-3.69-6.88-5.66
		c-3.04-2.71-5.8-5.71-8.84-8.39c-4.37-3.85-8.52-7.93-13.03-11.63c-4.22-3.46-8.49-6.76-13.6-8.77c-3.9-1.54-7.82-1.42-11.66,0.32
		c-5.08,2.3-9.43,5.73-14,8.84c-4.99,3.4-10.32,6.19-16.17,7.82c-4.38,1.22-8.8,1.42-13.37,0.89c-5.04-0.58-9.69-2.3-14.02-4.56
		c-8.64-4.51-15.96-10.99-23.55-17.03c-4.69-3.73-9.46-7.27-15.02-9.66c-7.3-3.14-14.81-3.99-22.55-2.27
		c-8.68,1.94-16.87,5.26-24.79,9.27c-6.16,3.12-12.31,6.25-18.45,9.41c-5.96,3.06-11.8,6.46-18.46,7.77
		c-4.03,0.8-6.08,0.59-7.74-2.08c-0.6-0.97-0.26-2.22-0.97-3.15c0-3.55,0-7.09,0-10.64c0.88-2.27,0.85-4.72,1.11-7.07
		c0.61-5.54,2-10.92,2.97-16.38c0.91-5.11,2.15-10.18,3.45-15.21c2.77-10.74,6.4-21.17,11.53-31.04
		c4.7-9.03,10.23-17.54,15.99-25.92c6.64-9.66,13.33-19.29,20.37-28.66c5.02-6.69,10.2-13.19,16.68-18.53
		c4.2-3.46,9.02-5.71,14.5-6.14c4.79-0.38,9.49,0.37,14.07,1.85c9.4,3.04,17.97,7.86,26.58,12.54c8.91,4.84,17.77,9.67,27.48,12.81
		c6.52,2.11,13.03,2.84,19.61,0.72c5.29-1.71,9.41-5.33,13.43-9.01c2.01-1.85,3.68-4.08,5.69-5.9c2.05-1.86,3.92-3.95,6.2-5.59
		c3.75-2.69,7.71-4.92,12.37-5.46c6.2-0.73,11.94,0.97,17.4,3.75c4.59,2.33,8.82,5.26,13.15,8.03c5.89,3.78,11.95,7.1,18.78,8.96
		c5.94,1.61,11.94,2.33,17.96,1.24c7.05-1.28,13.88-3.44,20.26-6.82c3.87-2.05,7.52-4.47,11.24-6.78
		c5.42-3.37,10.41-7.34,15.58-11.03c5.02-3.59,9.99-7.25,15.33-10.36C378.77,58.34,382.79,56.94,386.9,55.76z"/>
	<g>
		<path class="st2" d="M410.53,76.41c7.14,2.73,9.78,8.59,11.07,15.55c1.42,7.62,2.66,15.25,2.32,23.04
			c-0.29,6.61-1.64,13.03-3.35,19.4c-0.96,3.55-1.87,7.06-3.9,10.23c-3.08,4.78-7.94,4.86-11.77,1.16
			c-7.31-7.08-12.07-15.66-14.5-25.58c-1.4-5.7-1.51-11.5-1.05-17.22c0.62-7.6,2.81-14.84,7.58-21.03c2.08-2.71,5.1-4.12,8.09-5.54
			C406.85,76.41,408.69,76.41,410.53,76.41z"/>
		<path class="st2" d="M427.48,163.52c-1.66,1.86-3.43,3.63-4.95,5.6c-0.95,1.23-0.79,2.82-0.33,4.26c0.27,0.83,0.74,1.61,1.18,2.38
			c0.5,0.89,1.88,1.83,1.4,2.6c-0.61,0.99-2.3,0.39-3.14,0.04c-4.23-1.78-7.54-0.04-10.79,2.33c-0.97,0.71-2.18,1.84-3.22,1.17
			c-0.88-0.57-0.05-2.03,0.14-3.08c0.24-1.31,0.7-2.56,0.83-3.91c0.23-2.36-0.79-4.07-2.36-5.63c-1.01-1-2.05-1.96-2.82-3.19
			c-0.58-0.93-0.65-1.48,0.64-1.37c4.05,0.33,6.42-1.74,7.99-5.26c1.23-2.76,1.36-2.72,3.55-0.52c0.46,0.46,0.95,0.91,1.39,1.39
			c1.89,2.06,3.82,2.4,6.52,1.24c1.26-0.54,2.54-1.33,3.97-0.41C427.48,161.94,427.48,162.73,427.48,163.52z"/>
		<path class="st3" d="M244.04,181.57c-1.94,0.3-3.65-0.03-5.43,0.39c-2.56,0.61-4.28,2.12-5.38,4.27
			c-1.7,3.32-3.12,6.78-4.73,10.14c-3.69,7.68-9.65,12.78-17.85,15.03c-5.04,1.39-10.21,1.18-15.41,0.66
			c-3.71-0.37-7.4-0.78-11-1.68c-4.01-1-7.89-2.4-11.02-5.31c-4.84-4.49-5.2-9.74-2.58-15.48c1.64-3.6,4.02-6.76,6.09-10.1
			c1.06-1.7,2.13-3.41,2.46-5.51c0.43-2.73-0.64-4.69-2.79-6.12c-2.64-1.76-5.38-3.36-8.05-5.08c-2.75-1.77-2.92-3.69-0.7-6.12
			c2.59-2.84,5.62-5.21,8.55-7.66c4.36-3.64,7.87-7.92,10.83-12.71c1.84-2.97,3.79-5.9,7.7-6.27c2.78-0.26,5.55,0.01,8.23,0.83
			c3.43,1.06,6.69,2.58,9.33,4.98c2.79,2.54,3.79,5.87,1.84,10.15c-1.85,4.06-4.6,7.59-6.93,11.37c-1.82,2.97-3.57,6.02-3.62,9.68
			c-0.04,2.42,0.74,4.34,2.98,5.59c2.41,1.34,4.76,0.98,6.91-0.35c4.12-2.55,5.82-6.72,7.08-11.16c1.32-4.65,1.61-9.53,3.16-14.11
			c1.57-4.67,3.38-7.46,8.96-7.94c7.72-0.67,14.31,2.1,20.14,6.88c5.84,4.79,8.79,11.15,9.96,18.53c0.46,2.88,0.49,5.68-0.24,8.43
			c-1.25,4.67-5.42,8.02-10.53,8.27C249.28,181.32,246.59,182.1,244.04,181.57z"/>
		<path class="st4" d="M129.55,199.81c-6.01,0-11.58-1.42-16.58-4.91c-7.56-5.28-8.68-12.95-4.06-20.45
			c3.57-5.79,8.67-10.06,14.01-14.12c2.51-1.91,5.07-3.82,7.25-6.07c2.79-2.87,2.37-5.21-1.08-7.1c-4.91-2.68-10.31-4.13-15.51-6.1
			c-6.76-2.57-13.46-5.28-19.33-9.57c-2.41-1.76-4.63-3.8-6.02-6.63c-1.74-3.53-0.86-7.01,1.7-9.86c4.52-5.05,10.57-7.47,16.82-9.37
			c6.06-1.84,12.28-2.61,18.66-2.47c5.32,0.12,10.42,1.22,15.48,2.62c8.8,2.45,17.29,5.76,25.33,10.09
			c4.98,2.68,9.76,5.77,13.06,10.55c3.05,4.42,2.66,8.66-0.57,12.91c-3.65,4.81-8.73,7.81-13.71,10.96
			c-5.64,3.57-11.72,6.55-16.54,11.28c-3.44,3.38-5.17,7.36-4.52,12.51c0.55,4.32,1.73,8.54,1.79,12.97
			c0.1,7.81-5.32,10.99-10.76,12.34C133.17,199.84,131.37,199.76,129.55,199.81z"/>
		<path class="st5" d="M349.65,96.52c6.97-0.26,10.33,3.41,12.01,10.45c0.87,3.63,1.12,7.38,2.54,10.92c1.49,3.72,4.13,6.19,7.4,8.2
			c4.64,2.86,9.64,5.21,13.83,8.72c5.49,4.59,9.42,10.28,10.89,17.41c2.14,10.4-1.26,19.24-7.54,27.4
			c-4.8,6.23-10.65,11.05-17.69,14.46c-4.2,2.04-8.7,3.2-13.34,2.88c-7.37-0.51-14.19-2.72-19.92-7.73
			c-3.24-2.83-5.57-6.16-6.07-10.41c-0.42-3.61,1.07-6.91,3.02-9.86c3.18-4.8,7.8-8,12.54-11.14c2.88-1.91,6.26-1.95,9.22-3.35
			c1.13-0.53,3.24-0.54,2.59-2.29c-0.49-1.33-2.28-0.37-3.4-0.03c-1.57,0.47-3.01,1.36-4.57,1.85c-4.93,1.55-9.86,2.25-14.57-0.71
			c-1.7-1.07-2.59-3.41-2.12-5.54c0.49-2.23,1.17-4.43,1.51-6.69c0.46-3.03-0.96-6.31-5.32-8.79c-2.82-1.61-5.61-3.27-8.02-5.53
			c-4.41-4.13-3.79-8.79-1.21-13c5.44-8.85,13.87-13.7,23.49-16.71C346.49,96.53,348.21,96.22,349.65,96.52z"/>
		<path class="st6" d="M319.51,135.99c-0.01,5.51-2.72,10.08-5.17,14.75c-3.8,7.26-8.88,13.75-12.45,21.14
			c-1.37,2.84-2.22,5.8,0.25,8.52c1.67,1.85,4.06,2.47,6.32,3.17c2.24,0.69,4.57,1.04,6.84,1.65c0.83,0.22,1.68,0.64,2.36,1.17
			c1.8,1.38,1.59,3.35-0.68,5.81c-4.17,4.52-8.88,8.38-14.18,11.55c-5.91,3.54-12.35,5.11-19.11,5.95
			c-3.74,0.46-7.24,0.25-10.75-1.06c-3.84-1.43-6.29-4.38-8.36-7.65c-2.22-3.51-3.7-7.39-4.17-11.53c-0.32-2.77,0.48-5.46,1.59-7.99
			c1.35-3.07,2.91-6.05,4.22-9.14c2.81-6.62,2.1-12.75-2.57-18.41c-2.25-2.73-4.26-5.62-5.04-9.25c-1.45-6.74,3.9-17.07,12.88-16.25
			c3.22,0.29,6.13,1.63,8.95,3c4.82,2.36,8.96,1.29,12.9-1.87c2.54-2.04,4.97-4.22,7.82-5.86c5.6-3.23,11.4-2.33,15.27,3.06
			C319.08,130.48,319.48,132.07,319.51,135.99z"/>
		<path class="st4" d="M191.38,118.31c0.14,3.62-2.28,5.78-5.68,6.07c-3.02,0.26-6.27-3.48-6.13-6.87c0.14-3.23,2.43-6.08,5.81-6.02
			C188.47,111.54,191.72,114.41,191.38,118.31z"/>
		<path class="st7" d="M301.74,115.87c0,3.37-2.44,5.87-5.73,5.86c-3.18-0.01-6.14-3-6.1-6.16c0.05-3.57,2.87-6.49,6.2-6.46
			C298.82,109.14,302.2,111.68,301.74,115.87z"/>
		<path class="st7" d="M232.37,125.72c0-3.43,2.38-5.93,5.66-5.95c3.43-0.03,6.16,2.84,6.16,6.48c0,3.23-2.48,5.58-5.68,5.79
			C235.5,132.23,231.88,129.03,232.37,125.72z"/>
		<path class="st4" d="M174.25,115.03c-2.66,0-4.14-1.64-4.16-4.54c-0.02-4.26,3.22-6.19,5.96-6.44c2.31-0.21,4.35,2.11,4.27,4.63
			C180.21,111.89,177.54,115.34,174.25,115.03z"/>
		<path class="st7" d="M252.86,130.77c0.22,2.21-0.75,4.05-2.55,5.53c-1.82,1.5-3.78,0.91-4.59-1.34c-1.17-3.23,0.43-7.05,2.5-8.12
			c2.29-1.18,4.48,0.02,4.64,2.58C252.89,129.82,252.86,130.21,252.86,130.77z"/>
		<path class="st7" d="M307.89,113.06c2.37,0.11,4.42,2.35,4.48,4.4c0.04,1.46-1.83,3.29-3.23,3.05c-2.13-0.35-4.48-1.5-4.26-4.44
			C305,114.37,306.23,113.04,307.89,113.06z"/>
		<circle class="st5" cx="357.28" cy="165.88" r="3.03"/>
	</g>
	<g>
		<g>
			<path class="st8" d="M303.46,304.24c-0.57,0-1.14,0-1.72,0c-0.35-0.73-1.03-0.41-1.5-0.35c-3.98,0.5-6.85-0.54-7.58-5
				c-0.21-1.26-1.03-1.16-1.82-0.39c-0.85,0.84-1.64,1.76-2.54,2.55c-1.6,1.39-2.58,1.45-4.31,0.31c-1.57-1.04-3.12-2.1-4.64-3.21
				c-2.61-1.89-3.12-3.81-1.5-6.61c0.9-1.55,0.71-2.61-0.56-3.72c-1.71-1.5-2.44-3.42-2.05-5.68c0.32-1.86-0.35-3.53-0.91-5.24
				c-0.05,4.94-0.53,9.87,0.08,14.81c0.29,2.31,0.71,4.63,0.19,6.97c-0.41,1.85-1.01,3.67-2.99,4.23
				c-5.99,1.67-10.85,0.01-11.64-6.78c-0.66-5.72-1.35-11.47-1.1-17.26c0.05-1.09-0.09-2.16-0.28-3.24
				c-0.83-4.65-1.77-5.47-6.5-5.42c-2.38,0.02-3.71-1.06-4.2-3.39c-0.43-2.03-0.47-4.1-0.29-6.15c0.15-1.66,1-2.91,2.8-3.18
				c0.84-0.13,1.71-0.24,2.55-0.19c3.62,0.21,3.98-2.5,2.63-4.71c-0.46-0.75-1.05-1.34-1.65-1.94c-1.13-1.13-2.35-2.19-3.39-3.4
				c-1.72-1.98-2.38-4.21-1.35-6.8c0.5-1.26,0.84-2.59,1.23-3.89c0.77-2.55,2.2-4.42,4.93-5.14c1.97-0.52,3.18-1.89,3.83-3.8
				c0.25-0.75,0.52-1.5,0.81-2.24c1.07-2.71,2.92-4.42,5.95-4.65c2.24-0.17,4.17,0.45,5.58,2.24c1.33,1.7,0.81,3.47-0.15,5.11
				c-1.89,3.24-3.32,6.73-5.38,9.88c-0.66,1.01-1.27,2.13-0.92,3.57c1.47-0.68,2.07-2,2.76-3.19c1.2-2.06,2.16-4.26,3.71-6.12
				c2.07-2.48,3.61-2.89,6.56-1.61c2.19,0.95,2.88,0.63,3.59-1.72c0.2-0.65,0.34-1.32,0.54-1.97c0.31-1.01,1.01-1.78,2.03-1.86
				c2.78-0.22,5.56-0.78,8.36-0.29c3.1,0.54,4.37-0.07,5.87-2.81c1.7-3.11,3.26-3.83,6.74-3.05c1.67,0.37,3.33,0.63,5.06,0.54
				c3.78-0.21,4.44,0.23,5.97,3.7c0.54,1.22,1.27,2.1,2.75,2.2c2.61,0.17,5.22,0.44,7.83,0.64c4.99,0.39,6.31,1.18,7.99,5.84
				c1.48,4.1,1.86,8.57,1.95,12.94c0.07,3.69,0.63,7.4-0.05,11.1c-0.08,0.44-0.04,0.93,0.09,1.36c0.8,2.61,0.28,4.81-1.88,6.59
				c-0.93,0.77-0.85,1.65-0.01,2.49c0.77,0.76,1.56,1.51,2.3,2.31c2.15,2.34,2.18,4.19,0.13,6.62c-1.18,1.4-2.43,2.74-3.51,4.21
				c-1.79,2.43-1.63,3.57,0.56,5.59c0.55,0.5,1.11,1,1.62,1.54c1.67,1.77,1.92,3.45,0.73,5.59c-1.25,2.25-2.74,4.34-4.6,6.14
				c-1.8,1.74-3.95,1.95-6.05,0.59c-1.56-1.02-2.66-2.49-3.72-3.98c-1.16-1.62-2.11-3.4-3.53-4.82c-0.51-0.51-1.03-1.28-1.86-0.94
				c-0.76,0.3-0.84,1.16-0.9,1.9c-0.11,1.37-0.11,2.74-0.25,4.1c-0.44,4.3-3.59,7.58-7.79,8.47
				C306.52,303.96,304.9,303.38,303.46,304.24z M308.65,242.83c1.72,0,4.35,0,6.7-1.41c1.46-0.88,1.49-1.97,0.07-2.87
				c-0.52-0.33-1.1-0.61-1.69-0.77c-4.53-1.19-9.07-1.3-13.61-0.06c-1.01,0.27-2.06,0.76-2.18,1.89c-0.14,1.25,1.02,1.7,1.94,2.09
				C302.38,242.76,305.06,242.85,308.65,242.83z M307.13,249.66c-0.91,0-1.83-0.03-2.74,0.01c-1.72,0.07-3.39,0.41-4.99,1.04
				c-0.7,0.27-1.34,0.76-1.44,1.56c-0.11,0.91,0.67,1.22,1.31,1.59c1.2,0.71,2.54,0.94,3.89,1.09c3.9,0.44,7.8,0.65,11.58-0.75
				c0.82-0.3,1.88-0.6,1.77-1.76c-0.09-1.03-0.92-1.45-1.84-1.78C312.24,249.77,309.71,249.57,307.13,249.66z M292.31,263.75
				c-0.85,0-1.2-0.07-1.53,0.01c-1.02,0.25-2.37,0.21-2.67,1.45c-0.31,1.3,0.9,1.84,1.84,2.32c2.89,1.47,5.95,2.12,9.19,1.67
				c0.84-0.12,1.76-0.33,1.97-1.34c0.21-1.04-0.63-1.55-1.33-1.98C297.34,264.4,294.6,263.97,292.31,263.75z M322.22,270.04
				c2.07-0.04,4.26-1.84,4.2-3.46c-0.06-1.54-2.27-3.26-4.08-3.17c-2.16,0.11-3.88,1.67-3.86,3.53
				C318.49,268.71,320.15,270.08,322.22,270.04z M282.17,244.06c0.04-1.88-1.03-2.79-2.3-2.31c-1.81,0.67-3.64,3.47-3.53,5.38
				c0.09,1.45,1.22,2.16,2.55,1.56C281.02,247.72,281.74,245.81,282.17,244.06z M296.26,287.91c-0.13,0.98,0.32,1.74,1.09,2.14
				c0.91,0.46,1.62-0.17,2.18-0.85c0.97-1.16,1.59-2.47,1.51-4.03c-0.04-0.82-0.51-1.41-1.18-1.75c-0.72-0.37-1.27,0.15-1.79,0.62
				C296.95,285.08,296.4,286.4,296.26,287.91z M273.42,271.71c0.02,1.25,1.09,2.38,2.22,2.33c1.4-0.07,3.05-1.97,2.98-3.44
				c-0.05-1.17-1.21-2.39-2.25-2.38C275.01,268.23,273.4,270.13,273.42,271.71z M272.77,257.13c1.22-0.03,2.73-1.65,2.75-2.79
				c0.02-1.12-1.09-2.33-2.08-2.27c-1.16,0.07-2.69,1.75-2.58,2.95C270.99,256.23,271.78,256.89,272.77,257.13z M285.22,277.82
				c-1.38,0.05-2.76,1.58-2.65,2.76c0.11,1.08,0.64,2,1.86,2.09c1.06,0.08,2.64-1.76,2.45-2.88
				C286.7,278.75,286.24,277.81,285.22,277.82z"/>
			<path class="st8" d="M156.2,258.58c0-1.14,0-2.29,0-3.43c0.58-0.8,0.69-1.73,0.71-2.67c0.07-4.07,0.62-8.05,2.4-11.76
				c1.14-2.37,3-3.87,5.68-4.06c3.46-0.24,6.88-0.86,10.39-0.79c3.71,0.07,5.88-2.38,5.89-6.07c0-0.69,0-1.37,0.01-2.06
				c0.06-5.1,2.42-7.53,7.5-7.72c0.8-0.03,1.6,0.01,2.39,0.07c3.38,0.26,5.42,2.37,5.49,5.77c0.03,1.54-0.1,3.08-0.1,4.63
				c-0.01,0.91,0.02,1.83,0.14,2.73c0.14,1.09,0.72,1.98,1.78,2.3c1.04,0.31,1.98-0.03,2.8-0.82c0.88-0.85,1.34-1.78,1.32-3.01
				c-0.05-2.34-0.07-4.69-0.06-7.03c0.01-2.16,0.98-3.56,3.07-4.19c1.87-0.56,3.82-0.7,5.75-0.46c3.97,0.5,5.65,2.38,5.9,6.39
				c0.09,1.37,0.15,2.74,0.36,4.09c0.4,2.55,1.75,4.86,4.88,4.94c3.18,0.08,6.34,0.68,9.52,0.83c4.87,0.23,7.52,2.93,8.75,7.38
				c0.91,3.3,1.48,6.66,1.47,10.1c-0.01,3.71-0.01,7.41-0.07,11.12c-0.09,6.16,0.34,12.33-0.21,18.47
				c-0.43,4.76-1.38,9.43-3.06,13.93c-1.32,3.54-4.91,7.03-9.5,5.97c-0.69-0.16-1.49-0.02-2.2,0.15c-1.83,0.42-3.23,0-4.17-1.74
				c-0.74-1.37-1.91-1.91-3.53-1.9c-13.38,0.04-26.76,0.03-40.14-0.01c-1.39,0-2.51,0.41-3.22,1.54c-0.93,1.48-2.12,2.53-3.82,2.97
				c-0.34,0-0.69,0-1.03,0c-1.12-0.6-2.36-0.62-3.58-0.7c-3.6-0.23-6.21-1.71-7.44-5.37c-2.42-7.2-3.3-14.6-3.24-22.15
				c0.02-2.3-0.02-4.6-0.85-6.79c0-1.14,0-2.29,0-3.43C156.71,263.39,156.63,260.99,156.2,258.58z M197.75,279.11
				c0,2.14,0.45,3.86,1.6,5.35c1.48,1.92,3.36,2.05,5.05,0.35c2.14-2.15,2.36-6.81,0.44-9.44c-1.77-2.43-4.38-2.38-5.94,0.17
				C198.21,276.71,197.67,277.97,197.75,279.11z M219,279.44c-0.11,1.83,0.16,2.93,1.03,4.34c1.45,2.36,3.77,2.58,5.62,0.52
				c1.92-2.13,2.24-6.58,0.65-8.92c-1.83-2.69-4.34-2.68-6.12,0.03C219.34,276.67,218.88,278.06,219,279.44z M185.04,280.14
				c-0.4-2.24-0.63-4.72-3.03-6.18c-1.54-0.94-2.89-0.71-4.04,0.69c-2.29,2.78-1.78,7.95,1.01,10.24c1.4,1.15,3.1,1,4.43-0.34
				C184.59,283.37,184.71,281.82,185.04,280.14z M185.01,255.23c-0.15-0.91-0.15-1.8-0.44-2.58c-0.61-1.67-1.66-3.09-3.56-3.28
				c-1.75-0.17-2.84,1.08-3.62,2.44c-1.5,2.63-1.48,5.3,0.19,7.87c1.22,1.88,3.23,2.15,5.02,0.77
				C184.32,259.11,184.6,257.11,185.01,255.23z M197.93,254.87c-0.11,1.7,0.35,3.33,1.19,4.63c1.25,1.93,3.15,2.24,4.95,0.81
				c2.79-2.22,2.7-8.02-0.16-10.16c-1.33-1-2.77-0.91-4,0.23C198.53,251.67,197.97,253.3,197.93,254.87z M219.35,255.1
				c0.01,1.73,0.45,3.34,1.23,4.51c1.37,2.03,3.46,2.24,5.18,0.52c2.43-2.44,2.02-8.09-0.74-10.11c-1.28-0.93-2.5-0.93-3.67,0.22
				C219.98,251.58,219.32,253.19,219.35,255.1z"/>
			<path class="st8" d="M253.46,273.24c3.15,0.19,4.21,1.7,4.11,5.04c-0.13,4.77-0.01,9.55,0.04,14.33c0.02,1.8-0.68,3.39-1.52,4.87
				c-0.65,1.14-2.02,0.62-3.02,0.52c-1.73-0.18-3.4-2.24-3.83-3.99c-0.95-3.89-0.28-7.82-0.4-11.72c-0.06-1.99-0.37-4.01,0.4-6.03
				C250.02,274.19,251.24,273.1,253.46,273.24z"/>
		</g>
		<g>
			<path d="M303.46,304.24c-0.57,0-1.14,0-1.72,0c-0.35-0.73-1.03-0.41-1.5-0.35c-3.98,0.5-6.85-0.54-7.58-5
				c-0.21-1.26-1.03-1.16-1.82-0.39c-0.85,0.84-1.64,1.76-2.54,2.55c-1.6,1.39-2.58,1.45-4.31,0.31c-1.57-1.04-3.12-2.1-4.64-3.21
				c-2.61-1.89-3.12-3.81-1.5-6.61c0.9-1.55,0.71-2.61-0.56-3.72c-1.71-1.5-2.44-3.42-2.05-5.68c0.32-1.86-0.35-3.53-0.91-5.24
				c-0.05,4.94-0.53,9.87,0.08,14.81c0.29,2.31,0.71,4.63,0.19,6.97c-0.41,1.85-1.01,3.67-2.99,4.23
				c-5.99,1.67-10.85,0.01-11.64-6.78c-0.66-5.72-1.35-11.47-1.1-17.26c0.05-1.09-0.09-2.16-0.28-3.24
				c-0.83-4.65-1.77-5.47-6.5-5.42c-2.38,0.02-3.71-1.06-4.2-3.39c-0.43-2.03-0.47-4.1-0.29-6.15c0.15-1.66,1-2.91,2.8-3.18
				c0.84-0.13,1.71-0.24,2.55-0.19c3.62,0.21,3.98-2.5,2.63-4.71c-0.46-0.75-1.05-1.34-1.65-1.94c-1.13-1.13-2.35-2.19-3.39-3.4
				c-1.72-1.98-2.38-4.21-1.35-6.8c0.5-1.26,0.84-2.59,1.23-3.89c0.77-2.55,2.2-4.42,4.93-5.14c1.97-0.52,3.18-1.89,3.83-3.8
				c0.25-0.75,0.52-1.5,0.81-2.24c1.07-2.71,2.92-4.42,5.95-4.65c2.24-0.17,4.17,0.45,5.58,2.24c1.33,1.7,0.81,3.47-0.15,5.11
				c-1.89,3.24-3.32,6.73-5.38,9.88c-0.66,1.01-1.27,2.13-0.92,3.57c1.47-0.68,2.07-2,2.76-3.19c1.2-2.06,2.16-4.26,3.71-6.12
				c2.07-2.48,3.61-2.89,6.56-1.61c2.19,0.95,2.88,0.63,3.59-1.72c0.2-0.65,0.34-1.32,0.54-1.97c0.31-1.01,1.01-1.78,2.03-1.86
				c2.78-0.22,5.56-0.78,8.36-0.29c3.1,0.54,4.37-0.07,5.87-2.81c1.7-3.11,3.26-3.83,6.74-3.05c1.67,0.37,3.33,0.63,5.06,0.54
				c3.78-0.21,4.44,0.23,5.97,3.7c0.54,1.22,1.27,2.1,2.75,2.2c2.61,0.17,5.22,0.44,7.83,0.64c4.99,0.39,6.31,1.18,7.99,5.84
				c1.48,4.1,1.86,8.57,1.95,12.94c0.07,3.69,0.63,7.4-0.05,11.1c-0.08,0.44-0.04,0.93,0.09,1.36c0.8,2.61,0.28,4.81-1.88,6.59
				c-0.93,0.77-0.85,1.65-0.01,2.49c0.77,0.76,1.56,1.51,2.3,2.31c2.15,2.34,2.18,4.19,0.13,6.62c-1.18,1.4-2.43,2.74-3.51,4.21
				c-1.79,2.43-1.63,3.57,0.56,5.59c0.55,0.5,1.11,1,1.62,1.54c1.67,1.77,1.92,3.45,0.73,5.59c-1.25,2.25-2.74,4.34-4.6,6.14
				c-1.8,1.74-3.95,1.95-6.05,0.59c-1.56-1.02-2.66-2.49-3.72-3.98c-1.16-1.62-2.11-3.4-3.53-4.82c-0.51-0.51-1.03-1.28-1.86-0.94
				c-0.76,0.3-0.84,1.16-0.9,1.9c-0.11,1.37-0.11,2.74-0.25,4.1c-0.44,4.3-3.59,7.58-7.79,8.47
				C306.52,303.96,304.9,303.38,303.46,304.24z M308.65,242.83c1.72,0,4.35,0,6.7-1.41c1.46-0.88,1.49-1.97,0.07-2.87
				c-0.52-0.33-1.1-0.61-1.69-0.77c-4.53-1.19-9.07-1.3-13.61-0.06c-1.01,0.27-2.06,0.76-2.18,1.89c-0.14,1.25,1.02,1.7,1.94,2.09
				C302.38,242.76,305.06,242.85,308.65,242.83z M307.13,249.66c-0.91,0-1.83-0.03-2.74,0.01c-1.72,0.07-3.39,0.41-4.99,1.04
				c-0.7,0.27-1.34,0.76-1.44,1.56c-0.11,0.91,0.67,1.22,1.31,1.59c1.2,0.71,2.54,0.94,3.89,1.09c3.9,0.44,7.8,0.65,11.58-0.75
				c0.82-0.3,1.88-0.6,1.77-1.76c-0.09-1.03-0.92-1.45-1.84-1.78C312.24,249.77,309.71,249.57,307.13,249.66z M292.31,263.75
				c-0.85,0-1.2-0.07-1.53,0.01c-1.02,0.25-2.37,0.21-2.67,1.45c-0.31,1.3,0.9,1.84,1.84,2.32c2.89,1.47,5.95,2.12,9.19,1.67
				c0.84-0.12,1.76-0.33,1.97-1.34c0.21-1.04-0.63-1.55-1.33-1.98C297.34,264.4,294.6,263.97,292.31,263.75z M322.22,270.04
				c2.07-0.04,4.26-1.84,4.2-3.46c-0.06-1.54-2.27-3.26-4.08-3.17c-2.16,0.11-3.88,1.67-3.86,3.53
				C318.49,268.71,320.15,270.08,322.22,270.04z M282.17,244.06c0.04-1.88-1.03-2.79-2.3-2.31c-1.81,0.67-3.64,3.47-3.53,5.38
				c0.09,1.45,1.22,2.16,2.55,1.56C281.02,247.72,281.74,245.81,282.17,244.06z M296.26,287.91c-0.13,0.98,0.32,1.74,1.09,2.14
				c0.91,0.46,1.62-0.17,2.18-0.85c0.97-1.16,1.59-2.47,1.51-4.03c-0.04-0.82-0.51-1.41-1.18-1.75c-0.72-0.37-1.27,0.15-1.79,0.62
				C296.95,285.08,296.4,286.4,296.26,287.91z M273.42,271.71c0.02,1.25,1.09,2.38,2.22,2.33c1.4-0.07,3.05-1.97,2.98-3.44
				c-0.05-1.17-1.21-2.39-2.25-2.38C275.01,268.23,273.4,270.13,273.42,271.71z M272.77,257.13c1.22-0.03,2.73-1.65,2.75-2.79
				c0.02-1.12-1.09-2.33-2.08-2.27c-1.16,0.07-2.69,1.75-2.58,2.95C270.99,256.23,271.78,256.89,272.77,257.13z M285.22,277.82
				c-1.38,0.05-2.76,1.58-2.65,2.76c0.11,1.08,0.64,2,1.86,2.09c1.06,0.08,2.64-1.76,2.45-2.88
				C286.7,278.75,286.24,277.81,285.22,277.82z"/>
			<path d="M156.2,258.58c0-1.14,0-2.29,0-3.43c0.58-0.8,0.69-1.73,0.71-2.67c0.07-4.07,0.62-8.05,2.4-11.76
				c1.14-2.37,3-3.87,5.68-4.06c3.46-0.24,6.88-0.86,10.39-0.79c3.71,0.07,5.88-2.38,5.89-6.07c0-0.69,0-1.37,0.01-2.06
				c0.06-5.1,2.42-7.53,7.5-7.72c0.8-0.03,1.6,0.01,2.39,0.07c3.38,0.26,5.42,2.37,5.49,5.77c0.03,1.54-0.1,3.08-0.1,4.63
				c-0.01,0.91,0.02,1.83,0.14,2.73c0.14,1.09,0.72,1.98,1.78,2.3c1.04,0.31,1.98-0.03,2.8-0.82c0.88-0.85,1.34-1.78,1.32-3.01
				c-0.05-2.34-0.07-4.69-0.06-7.03c0.01-2.16,0.98-3.56,3.07-4.19c1.87-0.56,3.82-0.7,5.75-0.46c3.97,0.5,5.65,2.38,5.9,6.39
				c0.09,1.37,0.15,2.74,0.36,4.09c0.4,2.55,1.75,4.86,4.88,4.94c3.18,0.08,6.34,0.68,9.52,0.83c4.87,0.23,7.52,2.93,8.75,7.38
				c0.91,3.3,1.48,6.66,1.47,10.1c-0.01,3.71-0.01,7.41-0.07,11.12c-0.09,6.16,0.34,12.33-0.21,18.47
				c-0.43,4.76-1.38,9.43-3.06,13.93c-1.32,3.54-4.91,7.03-9.5,5.97c-0.69-0.16-1.49-0.02-2.2,0.15c-1.83,0.42-3.23,0-4.17-1.74
				c-0.74-1.37-1.91-1.91-3.53-1.9c-13.38,0.04-26.76,0.03-40.14-0.01c-1.39,0-2.51,0.41-3.22,1.54c-0.93,1.48-2.12,2.53-3.82,2.97
				c-0.34,0-0.69,0-1.03,0c-1.12-0.6-2.36-0.62-3.58-0.7c-3.6-0.23-6.21-1.71-7.44-5.37c-2.42-7.2-3.3-14.6-3.24-22.15
				c0.02-2.3-0.02-4.6-0.85-6.79c0-1.14,0-2.29,0-3.43C156.71,263.39,156.63,260.99,156.2,258.58z M197.75,279.11
				c0,2.14,0.45,3.86,1.6,5.35c1.48,1.92,3.36,2.05,5.05,0.35c2.14-2.15,2.36-6.81,0.44-9.44c-1.77-2.43-4.38-2.38-5.94,0.17
				C198.21,276.71,197.67,277.97,197.75,279.11z M219,279.44c-0.11,1.83,0.16,2.93,1.03,4.34c1.45,2.36,3.77,2.58,5.62,0.52
				c1.92-2.13,2.24-6.58,0.65-8.92c-1.83-2.69-4.34-2.68-6.12,0.03C219.34,276.67,218.88,278.06,219,279.44z M185.04,280.14
				c-0.4-2.24-0.63-4.72-3.03-6.18c-1.54-0.94-2.89-0.71-4.04,0.69c-2.29,2.78-1.78,7.95,1.01,10.24c1.4,1.15,3.1,1,4.43-0.34
				C184.59,283.37,184.71,281.82,185.04,280.14z M185.01,255.23c-0.15-0.91-0.15-1.8-0.44-2.58c-0.61-1.67-1.66-3.09-3.56-3.28
				c-1.75-0.17-2.84,1.08-3.62,2.44c-1.5,2.63-1.48,5.3,0.19,7.87c1.22,1.88,3.23,2.15,5.02,0.77
				C184.32,259.11,184.6,257.11,185.01,255.23z M197.93,254.87c-0.11,1.7,0.35,3.33,1.19,4.63c1.25,1.93,3.15,2.24,4.95,0.81
				c2.79-2.22,2.7-8.02-0.16-10.16c-1.33-1-2.77-0.91-4,0.23C198.53,251.67,197.97,253.3,197.93,254.87z M219.35,255.1
				c0.01,1.73,0.45,3.34,1.23,4.51c1.37,2.03,3.46,2.24,5.18,0.52c2.43-2.44,2.02-8.09-0.74-10.11c-1.28-0.93-2.5-0.93-3.67,0.22
				C219.98,251.58,219.32,253.19,219.35,255.1z"/>
			<path d="M253.46,273.24c3.15,0.19,4.21,1.7,4.11,5.04c-0.13,4.77-0.01,9.55,0.04,14.33c0.02,1.8-0.68,3.39-1.52,4.87
				c-0.65,1.14-2.02,0.62-3.02,0.52c-1.73-0.18-3.4-2.24-3.83-3.99c-0.95-3.89-0.28-7.82-0.4-11.72c-0.06-1.99-0.37-4.01,0.4-6.03
				C250.02,274.19,251.24,273.1,253.46,273.24z"/>
		</g>
	</g>
	<g>
		<circle class="st9" cx="57.88" cy="202.54" r="6.46"/>
		<circle class="st9" cx="65.16" cy="155.9" r="1.62"/>
		<circle class="st9" cx="126.49" cy="99.52" r="0.81"/>
		<circle class="st9" cx="207.94" cy="117.04" r="0.81"/>
		<circle class="st9" cx="323.01" cy="198.81" r="0.81"/>
		<circle class="st9" cx="336.48" cy="200.17" r="1.71"/>
		<circle class="st9" cx="163.22" cy="200.17" r="0.81"/>
		<circle class="st9" cx="170.33" cy="211.53" r="1.71"/>
		<circle class="st9" cx="360.31" cy="90.39" r="0.81"/>
		<circle class="st9" cx="368.26" cy="79.91" r="1.16"/>
		<circle class="st9" cx="438.1" cy="181.17" r="1.16"/>
		<circle class="st9" cx="84.9" cy="163.46" r="0.81"/>
		<circle class="st9" cx="449.8" cy="190.56" r="2.43"/>
	</g>
</g>
</svg>
